HIERARCHY
ROOT Hips
{
 OFFSET 0.000000 0.000000 0.000000
 CHANNELS 6 Xposition Yposition Zposition Yrotation Xrotation Zrotation
 JOINT Chest
 {
  OFFSET 0.000000 13.173100 -0.061900
  CHANNELS 3 Yrotation Xrotation Zrotation
  JOINT Chest2
  {
   OFFSET 0.000000 8.040800 0.126200
   CHANNELS 3 Yrotation Xrotation Zrotation
   JOINT Chest3
   {
    OFFSET 0.000000 7.994400 0.000000
    CHANNELS 3 Yrotation Xrotation Zrotation
    JOINT Chest4
    {
     OFFSET 0.000000 7.986200 0.000000
     CHANNELS 3 Yrotation Xrotation Zrotation
     JOINT Neck
     {
      OFFSET 0.000000 12.259400 0.000000
      CHANNELS 3 Yrotation Xrotation Zrotation
      JOINT Head
      {
       OFFSET 0.000000 7.518700 0.267100
       CHANNELS 3 Yrotation Xrotation Zrotation
       End Site
       {
        OFFSET 0.000000 13.617700 0.141000
       }
      }
     }
     JOINT RightCollar
     {
      OFFSET -2.983800 8.314300 0.000000
      CHANNELS 3 Yrotation Xrotation Zrotation
      JOINT RightShoulder
      {
       OFFSET -16.133400 0.000000 0.000000
       CHANNELS 3 Yrotation Xrotation Zrotation
       JOINT RightElbow
       {
        OFFSET 0.000000 -29.822100 0.000000
        CHANNELS 3 Yrotation Xrotation Zrotation
        JOINT RightWrist
        {
         OFFSET 0.000000 -24.437700 0.010900
         CHANNELS 3 Yrotation Xrotation Zrotation
         End Site
         {
          OFFSET 0.000000 -18.312300 0.000000
         }
        }
       }
      }
     }
     JOINT LeftCollar
     {
      OFFSET 2.983800 8.314300 0.000000
      CHANNELS 3 Yrotation Xrotation Zrotation
      JOINT LeftShoulder
      {
       OFFSET 16.133400 0.000000 0.000000
       CHANNELS 3 Yrotation Xrotation Zrotation
       JOINT LeftElbow
       {
        OFFSET 0.000000 -29.822100 0.000000
        CHANNELS 3 Yrotation Xrotation Zrotation
        JOINT LeftWrist
        {
         OFFSET 0.000000 -24.437700 0.010900
         CHANNELS 3 Yrotation Xrotation Zrotation
         End Site
         {
          OFFSET 0.000000 -18.312300 0.000000
         }
        }
       }
      }
     }
    }
   }
  }
 }
 JOINT RightHip
 {
  OFFSET -11.206700 0.306200 0.030900
  CHANNELS 3 Yrotation Xrotation Zrotation
  JOINT RightKnee
  {
   OFFSET 0.000000 -57.334900 0.009400
   CHANNELS 3 Yrotation Xrotation Zrotation
   JOINT RightAnkle
   {
    OFFSET 0.000000 -43.376200 0.036600
    CHANNELS 3 Yrotation Xrotation Zrotation
    JOINT RightToe
    {
     OFFSET 0.000000 -10.035500 18.363100
     CHANNELS 3 Yrotation Xrotation Zrotation
     End Site
     {
      OFFSET 0.000000 -1.618500 7.239000
     }
    }
   }
  }
 }
 JOINT LeftHip
 {
  OFFSET 11.206700 0.306200 0.030900
  CHANNELS 3 Yrotation Xrotation Zrotation
  JOINT LeftKnee
  {
   OFFSET 0.000000 -57.334900 0.009400
   CHANNELS 3 Yrotation Xrotation Zrotation
   JOINT LeftAnkle
   {
    OFFSET 0.000000 -43.376200 0.036600
    CHANNELS 3 Yrotation Xrotation Zrotation
    JOINT LeftToe
    {
     OFFSET 0.000000 -10.035500 18.363100
     CHANNELS 3 Yrotation Xrotation Zrotation
     End Site
     {
      OFFSET 0.000000 -1.618500 7.239000
     }
    }
   }
  }
 }
}
MOTION
Frames: 9
Frame Time: 0.008333
-97.785783 65.277963 85.834233 172.628405 -37.751260 -2.790454 2.140073 20.695070 1.649910 0.255318 2.769069 0.322603 0.464129 4.516996 0.558278 2.091806 17.867896 2.451737 2.348719 15.158318 -0.705936 4.624374 -7.585314 -2.225044 -2.999805 1.492633 -2.951781 -5.179809 -2.540571 5.321726 134.189892 -80.935608 -125.031849 3.201221 2.423216 1.371456 -2.187433 0.945411 0.032775 7.827262 -4.074749 1.128754 178.871335 -82.655044 167.125181 -7.889427 -3.410767 2.423732 -1.781028 -43.286785 2.517792 -115.463059 86.691853 -110.456878 0.422053 -9.585514 -2.487914 0.284718 -0.131828 0.208275 -4.152291 -39.894113 4.896462 74.892176 82.936434 65.228588 -4.811650 -12.375542 6.849804 0.538048 1.478861 0.352038
-97.777933 65.256896 85.832766 172.708871 -37.735139 -2.778349 2.115053 20.679531 1.637040 0.270747 2.764473 0.335103 0.450604 4.510612 0.554124 2.058596 17.868522 2.447789 2.374666 15.157694 -0.685738 4.605035 -7.560506 -2.174974 -2.961149 1.484510 -2.926014 -5.232768 -2.488887 5.313114 134.610381 -81.018198 -125.406830 3.291031 2.428641 1.321619 -2.193265 0.952995 0.030203 7.817817 -4.076925 1.128002 179.174579 -82.643944 166.787687 -7.929312 -3.418694 2.480497 -1.758544 -43.302685 2.435809 -115.792110 86.678322 -110.764432 0.369667 -9.564937 -2.500606 0.319329 -0.180843 0.224614 -4.091702 -39.913777 4.859620 74.761399 82.958718 65.092526 -4.858917 -12.340402 6.889826 0.573935 1.447667 0.352853
-97.760965 65.244546 85.824517 172.724113 -37.772623 -2.748440 2.155390 20.711403 1.648002 0.255723 2.763220 0.330789 0.469024 4.502453 0.565104 2.025999 17.868820 2.446120 2.399203 15.160718 -0.666833 4.571119 -7.534645 -2.139899 -2.936916 1.478248 -2.909830 -5.282725 -2.438312 5.318746 134.896533 -81.046991 -125.652154 3.267399 2.433220 1.276749 -2.168142 0.955839 0.039395 7.801716 -4.071606 1.125928 179.182287 -82.640241 166.721892 -8.014588 -3.397731 2.506981 -1.702041 -43.261607 2.382376 -116.010903 86.668656 -110.950472 0.323280 -9.546563 -2.523681 0.353805 -0.233008 0.232132 -4.050330 -39.873693 4.836684 74.725093 82.940166 65.020008 -4.808892 -12.285546 6.948385 0.506926 1.385765 0.301353
-97.742703 65.229053 85.822175 172.806599 -37.780882 -2.759703 2.142938 20.716031 1.656815 0.256705 2.759691 0.333520 0.435836 4.504893 0.554662 2.140046 17.829151 2.516305 2.312229 15.195187 -0.673337 4.518120 -7.517270 -2.131868 -3.021005 1.498262 -2.920504 -5.322227 -2.367267 5.351991 135.067668 -81.010262 -125.793715 3.230002 2.407718 1.214811 -2.249008 0.989445 0.026022 7.787613 -4.068249 1.112875 179.264071 -82.632306 166.558910 -8.095311 -3.346395 2.528613 -1.724169 -43.235918 2.340624 -116.186732 86.667724 -111.099453 0.274078 -9.557217 -2.559677 0.394949 -0.261851 0.244665 -4.066762 -39.863564 4.806219 74.628544 82.946279 64.913687 -4.763705 -12.277547 6.952072 0.463914 1.373628 0.291789
-97.718518 65.210940 85.825190 172.903755 -37.767688 -2.804423 2.127217 20.699741 1.691339 0.273520 2.753654 0.343212 0.437483 4.497988 0.559992 2.150721 17.814733 2.540541 2.271847 15.219752 -0.666694 4.466770 -7.501142 -2.125246 -3.061413 1.505557 -2.918338 -5.359240 -2.336014 5.348691 135.223347 -81.018004 -125.917961 3.244091 2.398731 1.151841 -2.225641 1.002130 0.048122 7.718512 -4.042930 1.075133 179.601188 -82.611838 166.189989 -8.121735 -3.290675 2.484658 -1.869872 -43.219302 2.396136 -116.016840 86.660655 -110.964242 0.237239 -9.583213 -2.593959 0.431760 -0.269685 0.253998 -4.097678 -39.873121 4.867084 74.454568 82.995016 64.693406 -4.837739 -12.256587 6.986328 0.498138 1.358980 0.315218
-97.700280 65.192112 85.828294 172.954366 -37.753615 -2.795670 2.120463 20.685249 1.687331 0.288283 2.751391 0.353669 0.455636 4.487995 0.570873 2.099054 17.817192 2.528309 2.293411 15.230251 -0.644423 4.430599 -7.470219 -2.099530 -3.039905 1.496898 -2.899568 -5.403672 -2.313993 5.330297 135.435921 -81.037653 -126.085734 3.199163 2.347399 1.039896 -2.207471 1.003231 0.060311 7.720594 -4.027085 1.058468 179.804741 -82.600243 165.912600 -8.136189 -3.227443 2.473041 -1.918770 -43.217683 2.368588 -116.101102 86.662531 -111.046571 0.234831 -9.603630 -2.625262 0.446999 -0.278836 0.248632 -4.091454 -39.882297 4.870306 74.308843 83.009931 64.498219 -4.858214 -12.236715 7.028769 0.490711 1.339516 0.303746
-97.681978 65.173242 85.831871 173.016550 -37.739501 -2.799500 2.117318 20.678463 1.704998 0.287911 2.747543 0.355010 0.455093 4.482040 0.573132 2.068386 17.811334 2.518682 2.299465 15.241727 -0.629464 4.433745 -7.412955 -2.033923 -3.019958 1.490442 -2.877661 -5.439262 -2.299402 5.308205 135.665849 -81.058830 -126.271871 3.144637 2.294544 0.914095 -2.187133 1.004517 0.068073 7.781312 -4.015200 1.048405 179.673584 -82.626574 165.928134 -8.153175 -3.193975 2.452907 -1.952274 -43.221457 2.327333 -116.202481 86.651071 -111.126667 0.247196 -9.610397 -2.652128 0.454744 -0.300073 0.242777 -4.101962 -39.891133 4.874946 74.133239 83.035495 64.290313 -4.862187 -12.234348 7.013271 0.474258 1.342263 0.344302
-97.666880 65.154843 85.834879 173.042895 -37.730553 -2.774541 2.149770 20.682566 1.730550 0.272995 2.742622 0.347314 0.454618 4.476691 0.574315 2.073613 17.792782 2.527585 2.241614 15.257768 -0.642798 4.454443 -7.370796 -1.979256 -3.033760 1.492430 -2.864881 -5.382009 -2.306842 5.294031 135.716275 -81.073265 -126.364704 3.109597 2.263295 0.807318 -2.200581 1.013070 0.060071 7.795210 -4.009421 1.040180 179.435967 -82.668770 166.064800 -8.180991 -3.193749 2.481573 -2.030309 -43.227917 2.290513 -116.590582 86.667251 -111.532369 0.318015 -9.598325 -2.675230 0.409847 -0.333723 0.207472 -4.081374 -39.896494 4.867128 73.937438 83.071386 64.079302 -4.891707 -12.223962 6.996691 0.503790 1.337927 0.375889
-97.660475 65.133681 85.840863 173.057941 -37.702464 -2.714768 2.157308 20.671102 1.712261 0.251804 2.733231 0.326896 0.454564 4.474281 0.574661 2.166080 17.783367 2.589386 2.167685 15.269088 -0.652732 4.434881 -7.341063 -1.951230 -3.125974 1.487258 -2.888682 -5.314384 -2.325373 5.284487 135.826503 -81.098641 -126.501711 3.080022 2.243640 0.721968 -2.268271 1.010268 0.029093 7.761382 -4.005926 1.032052 179.296149 -82.717915 166.168035 -8.204691 -3.200422 2.500277 -2.036556 -43.263730 2.191535 -117.068970 86.678073 -112.005694 0.372769 -9.589916 -2.694527 0.372129 -0.364907 0.182452 -4.035088 -39.921532 4.811083 73.805324 83.057502 63.912094 -4.909878 -12.203525 7.012920 0.492357 1.326175 0.370854
